<svg version="1.2" xmlns="http://www.w3.org/2000/svg" viewBox="0 0 106 106" width="106" height="106"><defs><clipPath clipPathUnits="userSpaceOnUse" id="cp1"><path d="m-7-7h120v120h-120zm63 20c0-1.66-1.34-3-3-3-1.66 0-3 1.34-3 3 0 1.66 1.34 3 3 3 1.66 0 3-1.34 3-3zm35.97 30.49c1.58-0.51 2.44-2.2 1.93-3.78-0.52-1.58-2.21-2.44-3.78-1.92-1.58 0.51-2.44 2.2-1.93 3.78 0.51 1.57 2.2 2.44 3.78 1.92zm-17.89 43.63c0.98 1.35 2.85 1.64 4.19 0.67 1.35-0.98 1.64-2.85 0.67-4.19-0.98-1.34-2.85-1.64-4.19-0.67-1.34 0.98-1.64 2.85-0.67 4.19zm-47.02-3.52c-0.97 1.34-0.68 3.21 0.67 4.19 1.34 0.97 3.21 0.68 4.19-0.67 0.97-1.34 0.67-3.21-0.67-4.19-1.34-0.97-3.21-0.67-4.19 0.67zm-11.18-45.81c-1.57-0.52-3.26 0.34-3.78 1.92-0.51 1.58 0.35 3.27 1.93 3.78 1.58 0.52 3.27-0.35 3.78-1.92 0.51-1.58-0.35-3.27-1.93-3.78z"/></clipPath></defs><style>.a{fill:none;stroke:#dea584;stroke-width:9}.b{fill:#dea584;stroke:#dea584;stroke-linejoin:round;stroke-width:3}.c{fill:#dea584}</style><g clip-path="url(#cp1)"><path class="a" d="m53 96c-23.8 0-43-19.2-43-43 0-23.8 19.2-43 43-43 23.8 0 43 19.2 43 43 0 23.8-19.2 43-43 43z"/><path class="b" d="m99 50l5 3-5 3z"/><path class="b" d="m98.7 59l4.3 3.9-5.5 2z"/><path class="b" d="m96.6 67.8l3.5 4.7-5.7 0.9z"/><path class="b" d="m92.9 76.1l2.5 5.2-5.8-0.2z"/><path class="b" d="m87.6 83.4l1.5 5.7-5.7-1.5z"/><path class="b" d="m81.1 89.6l0.2 5.8-5.2-2.5z"/><path class="b" d="m73.4 94.4l-0.9 5.7-4.7-3.5z"/><path class="b" d="m64.9 97.5l-2 5.5-3.9-4.3z"/><path class="b" d="m56 99l-3 5-3-5z"/><path class="b" d="m47 98.7l-3.9 4.3-2-5.5z"/><path class="b" d="m38.2 96.6l-4.7 3.5-0.9-5.7z"/><path class="b" d="m29.9 92.9l-5.2 2.5 0.2-5.8z"/><path class="b" d="m22.6 87.6l-5.7 1.5 1.5-5.7z"/><path class="b" d="m16.4 81.1l-5.8 0.2 2.5-5.2z"/><path class="b" d="m11.6 73.4l-5.7-0.9 3.5-4.7z"/><path class="b" d="m8.5 64.9l-5.5-2 4.3-3.9z"/><path class="b" d="m7 56l-5-3 5-3z"/><path class="b" d="m7.3 47l-4.3-3.9 5.5-2z"/><path class="b" d="m9.4 38.2l-3.5-4.7 5.7-0.9z"/><path class="b" d="m13.1 29.9l-2.5-5.2 5.8 0.2z"/><path class="b" d="m18.4 22.6l-1.5-5.7 5.7 1.5z"/><path class="b" d="m24.9 16.4l-0.2-5.8 5.2 2.5z"/><path class="b" d="m32.6 11.6l0.9-5.7 4.7 3.5z"/><path class="b" d="m41.1 8.5l2-5.5 3.9 4.3z"/><path class="b" d="m50 7l3-5 3 5z"/><path class="b" d="m59 7.3l3.9-4.3 2 5.5z"/><path class="b" d="m67.8 9.4l4.7-3.5 0.9 5.7z"/><path class="b" d="m76.1 13.1l5.2-2.5-0.2 5.8z"/><path class="b" d="m83.4 18.4l5.7-1.5-1.5 5.7z"/><path class="b" d="m89.6 24.9l5.8-0.2-2.5 5.2z"/><path class="b" d="m94.4 32.6l5.7 0.9-3.5 4.7z"/><path class="b" d="m97.5 41.1l5.5 2-4.3 3.9z"/><path class="b" d="m60 11l-7 7-7-7z"/><path class="b" d="m95.1 46.7l-8.8-4.5 4.5-8.8z"/><path class="b" d="m72 91.1l1.6-9.8 9.8 1.6z"/><path class="b" d="m22.6 82.9l9.8-1.6 1.6 9.8z"/><path class="b" d="m15.2 33.4l4.5 8.8-8.8 4.5z"/></g><path class="c" d="m43.5 81.5h-5.9v-49.1h5.9v22.1q0 4.6 2.2 7 2.2 2.3 6.5 2.3 4.7 0 7-2.6 2.4-2.7 2.4-8v-20.8h5.8v27.4q0 1.9 0.6 2.8 0.6 0.9 1.7 0.9 0.3 0 0.8-0.1 0.5-0.2 1.4-0.6v4.7q-1.3 0.7-2.5 1.1-1.1 0.3-2.2 0.3-2.2 0-3.5-1.2-1.3-1.3-1.8-3.8-1.6 2.5-3.9 3.8-2.3 1.2-5.4 1.2-3.2 0-5.5-1.2-2.3-1.3-3.6-3.7z"/></svg>