<svg version="1.2" xmlns="http://www.w3.org/2000/svg" viewBox="0 0 2000 2000" width="106" height="106">
	<title>logo-svg</title>
	<defs>
		<clipPath clipPathUnits="userSpaceOnUse" id="cp1">
			<path d="m-132.08-132.08h2264.16v2264.16h-2264.16zm1188.68 377.35c0-31.3-25.3-56.6-56.6-56.6-31.3 0-56.6 25.3-56.6 56.6 0 31.31 25.3 56.61 56.6 56.61 31.3 0 56.6-25.3 56.6-56.61zm678.68 575.29c29.81-9.63 46.04-41.51 36.42-71.32-9.81-29.82-41.7-46.04-71.32-36.23-29.81 9.62-46.04 41.51-36.42 71.32 9.62 29.62 41.51 46.04 71.32 36.23zm-337.54 823.2c18.49 25.48 53.77 30.95 79.05 12.65 25.47-18.49 30.95-53.78 12.64-79.06-18.49-25.28-53.77-30.94-79.05-12.64-25.29 18.49-30.95 53.77-12.64 79.05zm-887.17-66.41c-18.31 25.28-12.83 60.57 12.64 79.06 25.28 18.3 60.56 12.83 79.05-12.65 18.31-25.28 12.65-60.56-12.64-79.05-25.28-18.3-60.56-12.64-79.05 12.64zm-210.95-864.34c-29.62-9.81-61.51 6.41-71.32 36.23-9.62 29.81 6.61 61.69 36.42 71.32 29.81 9.81 61.7-6.61 71.32-36.23 9.62-29.81-6.61-61.7-36.42-71.32z"/>
		</clipPath>
	</defs>
	<style>
		.s0 { fill: none;stroke: #dea584;stroke-width: 169.8 } 
		.s1 { fill: #dea584;stroke: #dea584;stroke-linejoin: round;stroke-width: 56.6 } 
		.s2 { fill: none;stroke: #dea584;stroke-linecap: round;stroke-linejoin: round;stroke-width: 82.5 } 
	</style>
	<g id="Clip-Path" clip-path="url(#cp1)">
		<g id="Layer">
			<path id="Layer" class="s0" d="m1000 1811.3c-448.7 0-811.3-362.6-811.3-811.3 0-448.7 362.6-811.3 811.3-811.3 448.7 0 811.3 362.6 811.3 811.3 0 448.7-362.6 811.3-811.3 811.3z"/>
			<path id="Layer" class="s1" d="m1867.9 943.4l94.4 56.6-94.4 56.6z"/>
			<path id="Layer" class="s1" d="m1862.3 1113.2l81.1 73.6-103.8 37.7z"/>
			<path id="Layer" class="s1" d="m1822.6 1279.2l66.1 88.7-107.6 17z"/>
			<path id="Layer" class="s1" d="m1752.8 1435.8l47.2 98.2-109.4-3.8z"/>
			<path id="Layer" class="s1" d="m1652.8 1573.6l28.3 107.5-107.5-28.3z"/>
			<path id="Layer" class="s1" d="m1530.2 1690.6l3.8 109.4-98.2-47.2z"/>
			<path id="Layer" class="s1" d="m1384.9 1781.1l-17 107.6-88.7-66.1z"/>
			<path id="Layer" class="s1" d="m1224.5 1839.6l-37.7 103.8-73.6-81.1z"/>
			<path id="Layer" class="s1" d="m1056.6 1867.9l-56.6 94.4-56.6-94.4z"/>
			<path id="Layer" class="s1" d="m886.8 1862.3l-73.6 81.1-37.7-103.8z"/>
			<path id="Layer" class="s1" d="m720.8 1822.6l-88.7 66.1-17-107.6z"/>
			<path id="Layer" class="s1" d="m564.2 1752.8l-98.2 47.2 3.8-109.4z"/>
			<path id="Layer" class="s1" d="m426.4 1652.8l-107.5 28.3 28.3-107.5z"/>
			<path id="Layer" class="s1" d="m309.4 1530.2l-109.4 3.8 47.2-98.2z"/>
			<path id="Layer" class="s1" d="m218.9 1384.9l-107.6-17 66.1-88.7z"/>
			<path id="Layer" class="s1" d="m160.4 1224.5l-103.8-37.7 81.1-73.6z"/>
			<path id="Layer" class="s1" d="m132.1 1056.6l-94.4-56.6 94.4-56.6z"/>
			<path id="Layer" class="s1" d="m137.7 886.8l-81.1-73.6 103.8-37.7z"/>
			<path id="Layer" class="s1" d="m177.4 720.8l-66.1-88.7 107.6-17z"/>
			<path id="Layer" class="s1" d="m247.2 564.2l-47.2-98.2 109.4 3.8z"/>
			<path id="Layer" class="s1" d="m347.2 426.4l-28.3-107.5 107.5 28.3z"/>
			<path id="Layer" class="s1" d="m469.8 309.4l-3.8-109.4 98.2 47.2z"/>
			<path id="Layer" class="s1" d="m615.1 218.9l17-107.6 88.7 66.1z"/>
			<path id="Layer" class="s1" d="m775.5 160.4l37.7-103.8 73.6 81.1z"/>
			<path id="Layer" class="s1" d="m943.4 132.1l56.6-94.4 56.6 94.4z"/>
			<path id="Layer" class="s1" d="m1113.2 137.7l73.6-81.1 37.7 103.8z"/>
			<path id="Layer" class="s1" d="m1279.2 177.4l88.7-66.1 17 107.6z"/>
			<path id="Layer" class="s1" d="m1435.8 247.2l98.2-47.2-3.8 109.4z"/>
			<path id="Layer" class="s1" d="m1573.6 347.2l107.5-28.3-28.3 107.5z"/>
			<path id="Layer" class="s1" d="m1690.6 469.8l109.4-3.8-47.2 98.2z"/>
			<path id="Layer" class="s1" d="m1781.1 615.1l107.6 17-66.1 88.7z"/>
			<path id="Layer" class="s1" d="m1839.6 775.5l103.8 37.7-81.1 73.6z"/>
			<path id="Layer" class="s1" d="m1132.1 207.5l-132.1 132.1-132.1-132.1z"/>
			<path id="Layer" class="s1" d="m1794.3 881.1l-166-84.9 84.9-166z"/>
			<path id="Layer" class="s1" d="m1358.5 1718.9l30.2-184.9 184.9 30.2z"/>
			<path id="Layer" class="s1" d="m426.4 1564.2l184.9-30.2 30.2 184.9z"/>
			<path id="Layer" class="s1" d="m286.8 630.2l84.9 166-166 84.9z"/>
		</g>
	</g>
	<path id="Layer" class="s2" d="m975 1408.3c-65.8 0.2-282.6-2.8-374.7-5.5-19.6-0.8-35-17.3-34.2-36.9 0.4-12.9 7.8-24.5 19.2-30.3l257.5-88.9m608.6-28.1c-7.8-0.1-108.1 30.1-147.5 29.5-81.9-1.1-122.5-8.2-198-39.9-166.2-70.5 45.2-487.9 45.2-487.9l48.6-100.7c0-77.1-40-142.3-100.7-163.2-73-25-248.3 35.8-248.3 112.9 0 92.1 156.3 114.6 156.3 114.6-145.8 175.3-204.7 651.2-109.4 693.9 123.1 55.3 345.6 62.9 508.4 46 110.9-11.5 123.9-76.7 112.2-150.2m-452.2-115.7c364.5-163.3 453.8 93.6 452.5 145.4m-653.6-705.4c-5.7 0.3-38.8 7.5-72.4 24.7-41.5 21.3-33.8 53.2-75.5 56.6-26.4 2.2-36.7-29.6-56.6-18.8-14.1 7.6-25 33.8-18.9 37.7"/>
</svg>